<svg id="Titre" xmlns="http://www.w3.org/2000/svg" width="64.000000px" height="64.000000px" viewBox="0 0 64.000000 64.000000">
	<title>ICON_TOOLBAR_LANDING_INSPECTOR</title>
	<g id="HIGHLIGHT">
		<g>
			<path d="M64.1,37.5c-0.7,1.8-2.3,2.1-4,2.2c-2.5,0.2-4.9-0.4-7.4-0.8c-4.4-0.7-8.8-1.5-13.2-2.1c-0.9-0.1-1.9,0.2-2.9,0.4
				c-5,0.8-10.1,1.7-15.2,2.5c-0.9,0.1-1.9-0.2-2.8-0.3c-0.7-0.1-1.4-0.2-2.2-0.4c-0.8-0.1-1.2-0.5-1.3-1.1c-0.1-0.7,0.2-1.1,1-1.4
				c2.1-0.8,4.1-1.7,6.2-2.5c0.2-0.1,0.4-0.2,0.7-0.3c-0.4-0.1-0.6-0.2-0.9-0.3c-6.8-2.3-13.5-4.5-20.3-6.8c-1.1-0.4-1.6-1.1-1.3-2
				c0.3-0.8,1-1.2,1.8-1c0.6,0.1,1.2,0.2,1.9,0.3c0-0.3,0-0.5,0-0.8c-0.1-4-0.3-8-0.4-12.1c0-1.3,0.7-2,2-1.8C6.5,9.3,7,9.4,7.5,9.5
				c0.8,0.1,1.3,0.5,1.7,1.3c1.8,3.7,3.6,7.4,5.3,11.1c0.2,0.5,0.5,0.6,1,0.7c7,1.1,13.9,2.3,20.9,3.4c5.3,0.9,10.5,1.8,15.8,2.7
				c2,0.3,3.9,1,5.5,2.3c1,0.8,2.2,1.3,3.3,2c1.4,0.9,2.6,2,3.2,3.6C64.1,36.8,64.1,37.2,64.1,37.5z"/>
			<path d="M0.1,51.5c0.1-0.3,0.3-0.6,0.4-0.8c0.5-0.9,1.3-1.4,2.3-1.4c0.2,0,0.4,0,0.6,0c19,0,37.9,0,56.9,0c1.3,0,2.3,0.4,3,1.5
				c1,1.7-0.1,3.9-2,4.3c-0.4,0.1-0.8,0.1-1.2,0.1c-18.8,0-37.5,0-56.3,0c-1.8,0-3.1-0.6-3.8-2.4C0.1,52.3,0.1,51.9,0.1,51.5z"/>
		</g>
	</g>
</svg>