<svg id="Titre" xmlns="http://www.w3.org/2000/svg" width="64.000000px" height="64.000000px" viewBox="0 0 64.000000 64.000000">
	<title>ICON_TOOLBAR_WIDGET_VFRMAP</title>
	<g id="HIGHLIGHT">
		<g fill="#000000" stroke="none">
			<path d="M20.5,54.7c3.4-1.3,6.7-2.5,9.9-3.8c0.3-0.1,0.5-0.6,0.5-0.9c0.1-1.2,0-2.3,0-3.5c0-0.9,0.2-1.6,1.1-1.6
			c1.1,0,1.2,0.8,1.2,1.7c0,1.2,0,2.3,0,3.5c0,0.4,0.3,0.9,0.6,1c3.1,1.2,6.2,2.4,9.3,3.6c0.1,0,0.2,0,0.5,0
			c-0.2-2.3-0.4-4.5-0.6-6.7c-0.5-4.9-1-9.7-1.5-14.6c-0.1-0.8,0-1.7,1-1.9c1.2-0.2,1.3,0.8,1.4,1.6c0.7,6.9,1.4,13.8,2.1,20.6
			c0,0.2,0.1,0.3,0.1,0.6c0.3-0.1,0.6-0.2,0.8-0.3c2.6-1.8,5.2-3.6,7.8-5.4c0.3-0.2,0.7-0.9,0.6-1.2c-1.7-7.3-3.5-14.6-5.3-21.9
			c0-0.2-0.1-0.3-0.2-0.6c-1.3,0.9-2.5,1.7-3.7,2.5c-0.7,0.5-1.5,1.2-2.3,0.1c-0.6-0.8-0.3-1.6,0.9-2.4c2.2-1.5,4.3-3,6.6-4.6
			c0.5,2,1,3.9,1.4,5.7c1.8,7.3,3.5,14.7,5.3,22c0.2,0.8,0.1,1.2-0.6,1.7c-3.7,2.5-7.4,5.1-11.1,7.7c-0.7,0.5-1.2,0.6-2,0.2
			c-3.8-1.5-7.6-2.9-11.4-4.4c-0.5-0.2-1.3-0.2-1.8,0c-3.8,1.4-7.6,2.9-11.4,4.3C19,58,18.5,58,17.8,57.5c-3.8-2.6-7.5-5.3-11.3-7.9
			C6,49.3,5.7,49,5.9,48.2c2.2-9.1,4.4-18.2,6.6-27.3c0-0.2,0.1-0.4,0.3-0.7c1.4,0.9,2.7,1.8,4,2.7c1.1,0.7,2.1,1.4,3.1,2.2
			c0.7,0.5,0.7,1.2,0.3,1.9c-0.5,0.7-1.1,0.6-1.8,0.2c-1.3-0.9-2.7-1.8-4.2-2.9c-0.6,2.4-1.2,4.6-1.7,6.8c-1.2,5-2.4,10.1-3.7,15.1
			c-0.3,1-0.1,1.6,0.8,2.2c2.5,1.7,4.9,3.4,7.4,5.1c0.3,0.2,0.6,0.4,1.1,0.7c0.2-2,0.4-3.9,0.6-5.8c0.5-5.3,1.1-10.6,1.6-15.9
			c0.1-0.8,0.3-1.6,1.3-1.5c1.1,0.1,1.1,1,1,1.8c-0.7,6.6-1.3,13.1-2,19.7C20.6,53.5,20.6,54,20.5,54.7z"/>
			<path d="M32,42.2c-2-2.7-4-5.2-5.8-7.8c-2.5-3.7-4.4-7.8-5.1-12.3C20.6,19,20.8,16,22,13.2C23.9,8.8,27.8,6,32.1,6
			c4.4,0,8.4,2.9,10.1,7.4c1.7,4.3,1.3,8.6-0.1,12.9C40.1,32.2,36.5,37.2,32,42.2z M32.1,38.3c4.3-5.3,7.9-10.7,8.8-17.4
			c0.3-2.4,0-4.9-1.1-7.1c-2.5-4.9-8.2-6.6-12.4-3.5c-2.7,2-4,4.8-4.1,8C23.1,26.2,27.4,32.1,32.1,38.3z"/>
			<path d="M32.5,25.4c-2.4-0.1-4-1.2-5.1-3.1c-1.6-2.8-1.2-6.3,1-8.6c2.1-2.3,5.5-2.4,7.7-0.3c2.1,2,2.6,4.5,1.9,7.2
			c-0.6,2.2-1.9,3.9-4.1,4.6C33.4,25.3,32.9,25.4,32.5,25.4z M36,18.7c0-2.2-1.5-3.9-3.5-4c-2,0-3.6,1.7-3.6,4c0,2.2,1.6,4,3.5,4
			C34.3,22.7,36,20.9,36,18.7z"/>
		</g>
	</g>
</svg>
